Antonio-heavy.ufo
<glyph name="dollar" format="1">
  <advance width="935"/>
  <unicode hex="0024"/>
  <outline>
    <contour>
      <point x="410" y="-180" type="line"/>
      <point x="583" y="-180" type="line"/>
      <point x="583" y="80" type="line"/>
      <point x="410" y="80" type="line"/>
    </contour>
    <contour>
      <point x="410" y="1531" type="line"/>
      <point x="583" y="1531" type="line"/>
      <point x="583" y="1760" type="line"/>
      <point x="410" y="1760" type="line"/>
    </contour>
    <component base="s" yOffset="40"/>
  </outline>
</glyph>
<glyph name="ampersand" format="1">
  <advance width="1158"/>
  <unicode hex="0026"/>
  <outline>
    <contour>
      <point x="418" y="-20" type="curve" smooth="yes"/>
      <point x="785" y="-20"/>
      <point x="913" y="477"/>
      <point x="1128" y="690" type="curve"/>
      <point x="988" y="934" type="line"/>
      <point x="720" y="616"/>
      <point x="585" y="289"/>
      <point x="483" y="289" type="curve" smooth="yes"/>
      <point x="420" y="289"/>
      <point x="368" y="360"/>
      <point x="368" y="466" type="curve" smooth="yes"/>
      <point x="368" y="806"/>
      <point x="934" y="1025"/>
      <point x="934" y="1434" type="curve" smooth="yes"/>
      <point x="934" y="1657"/>
      <point x="783" y="1781"/>
      <point x="585" y="1781" type="curve" smooth="yes"/>
      <point x="384" y="1781"/>
      <point x="233" y="1648"/>
      <point x="233" y="1421" type="curve"/>
      <point x="233" y="1140"/>
      <point x="679" y="100"/>
      <point x="713" y="0" type="curve"/>
      <point x="1057" y="0" type="line"/>
      <point x="984" y="197"/>
      <point x="551" y="1278"/>
      <point x="551" y="1441" type="curve" smooth="yes"/>
      <point x="551" y="1515"/>
      <point x="591" y="1552"/>
      <point x="636" y="1552" type="curve" smooth="yes"/>
      <point x="686" y="1552"/>
      <point x="715" y="1525"/>
      <point x="715" y="1427" type="curve" smooth="yes"/>
      <point x="715" y="1073"/>
      <point x="84" y="975"/>
      <point x="84" y="397" type="curve" smooth="yes"/>
      <point x="84" y="140"/>
      <point x="197" y="-20"/>
    </contour>
  </outline>
</glyph>
<glyph name="six" format="1">
  <advance width="1038"/>
  <unicode hex="0036"/>
  <outline>
    <contour>
      <point x="542" y="-21" type="curve" smooth="yes"/>
      <point x="883" y="-21"/>
      <point x="970" y="157"/>
      <point x="970" y="515" type="curve" smooth="yes"/>
      <point x="970" y="597" type="line" smooth="yes"/>
      <point x="970" y="904"/>
      <point x="900" y="1103"/>
      <point x="671" y="1103" type="curve" smooth="yes"/>
      <point x="565" y="1103"/>
      <point x="492" y="1072"/>
      <point x="454" y="1024" type="curve"/>
      <point x="454" y="1282" type="line" smooth="yes"/>
      <point x="454" y="1402"/>
      <point x="462" y="1465"/>
      <point x="541" y="1465" type="curve" smooth="yes"/>
      <point x="598" y="1465"/>
      <point x="621" y="1401"/>
      <point x="621" y="1240" type="curve"/>
      <point x="946" y="1240" type="line"/>
      <point x="946" y="1626"/>
      <point x="835" y="1781"/>
      <point x="558" y="1781" type="curve" smooth="yes"/>
      <point x="277" y="1781"/>
      <point x="94" y="1677"/>
      <point x="94" y="1239" type="curve" smooth="yes"/>
      <point x="94" y="543" type="line" smooth="yes"/>
      <point x="94" y="166"/>
      <point x="175" y="-21"/>
    </contour>
    <contour>
      <point x="542" y="294" type="curve" smooth="yes"/>
      <point x="483" y="294"/>
      <point x="454" y="337"/>
      <point x="454" y="424" type="curve" smooth="yes"/>
      <point x="454" y="662" type="line" smooth="yes"/>
      <point x="454" y="745"/>
      <point x="485" y="787"/>
      <point x="547" y="787" type="curve" smooth="yes"/>
      <point x="601" y="787"/>
      <point x="628" y="739"/>
      <point x="628" y="643" type="curve" smooth="yes"/>
      <point x="628" y="424" type="line" smooth="yes"/>
      <point x="628" y="336"/>
      <point x="608" y="294"/>
    </contour>
  </outline>
</glyph>
<glyph name="seven" format="1">
  <advance width="1038"/>
  <unicode hex="0037"/>
  <outline>
    <contour>
      <point x="166" y="1" type="curve"/>
      <point x="194" y="1"/>
      <point x="564" y="1"/>
      <point x="564" y="1" type="curve"/>
      <point x="602.584" y="616.668"/>
      <point x="924.531" y="986.496"/>
      <point x="979" y="1499" type="curve"/>
      <point x="979" y="1761" type="line"/>
      <point x="91" y="1761" type="line"/>
      <point x="91" y="1435" type="line"/>
      <point x="588" y="1435" type="line"/>
      <point x="516.377" y="1154.02"/>
      <point x="205.096" y="600.882"/>
    </contour>
  </outline>
</glyph>
<glyph name="eight" format="1">
  <advance width="1038"/>
  <unicode hex="0038"/>
  <outline>
    <contour>
      <point x="522" y="-21" type="curve" smooth="yes"/>
      <point x="810" y="-21"/>
      <point x="962" y="140"/>
      <point x="962" y="453" type="curve" smooth="yes"/>
      <point x="962" y="653" type="line" smooth="yes"/>
      <point x="962" y="806"/>
      <point x="912" y="921"/>
      <point x="825" y="984" type="curve"/>
      <point x="921" y="1051"/>
      <point x="962" y="1189.78"/>
      <point x="962" y="1336" type="curve" smooth="yes"/>
      <point x="962" y="1659"/>
      <point x="828" y="1782"/>
      <point x="520" y="1782" type="curve" smooth="yes"/>
      <point x="220" y="1782"/>
      <point x="76" y="1648"/>
      <point x="76" y="1336" type="curve" smooth="yes"/>
      <point x="76" y="1191.34"/>
      <point x="125" y="1054"/>
      <point x="220" y="987" type="curve"/>
      <point x="129" y="924"/>
      <point x="76" y="809"/>
      <point x="76" y="653" type="curve" smooth="yes"/>
      <point x="76" y="453" type="line" smooth="yes"/>
      <point x="76" y="140"/>
      <point x="234" y="-21"/>
    </contour>
    <contour>
      <point x="522" y="290" type="curve" smooth="yes"/>
      <point x="440" y="290"/>
      <point x="436" y="352"/>
      <point x="436" y="444" type="curve" smooth="yes"/>
      <point x="436" y="707" type="line" smooth="yes"/>
      <point x="436" y="782"/>
      <point x="454" y="845"/>
      <point x="522" y="845" type="curve" smooth="yes"/>
      <point x="592" y="845"/>
      <point x="602" y="773"/>
      <point x="602" y="706" type="curve" smooth="yes"/>
      <point x="602" y="444" type="line" smooth="yes"/>
      <point x="602" y="359"/>
      <point x="599" y="290"/>
    </contour>
    <contour>
      <point x="520" y="1073" type="curve" smooth="yes"/>
      <point x="458" y="1073"/>
      <point x="436" y="1116"/>
      <point x="436" y="1290" type="curve" smooth="yes"/>
      <point x="436" y="1465"/>
      <point x="448" y="1511"/>
      <point x="520" y="1511" type="curve" smooth="yes"/>
      <point x="592" y="1511"/>
      <point x="602" y="1471"/>
      <point x="602" y="1290" type="curve" smooth="yes"/>
      <point x="602" y="1118"/>
      <point x="582" y="1073"/>
    </contour>
  </outline>
</glyph>
<glyph name="nine" format="1">
  <advance width="1038"/>
  <unicode hex="0039"/>
  <outline>
    <contour>
      <point x="485" y="-20" type="curve" smooth="yes"/>
      <point x="766" y="-20"/>
      <point x="944" y="83"/>
      <point x="944" y="521" type="curve" smooth="yes"/>
      <point x="944" y="1217" type="line" smooth="yes"/>
      <point x="944" y="1644"/>
      <point x="839" y="1781"/>
      <point x="513" y="1781" type="curve" smooth="yes"/>
      <point x="172" y="1781"/>
      <point x="67" y="1603"/>
      <point x="67" y="1245" type="curve" smooth="yes"/>
      <point x="67" y="1151" type="line" smooth="yes"/>
      <point x="67" y="844"/>
      <point x="171" y="665"/>
      <point x="420" y="665" type="curve" smooth="yes"/>
      <point x="510" y="665"/>
      <point x="558" y="679"/>
      <point x="589" y="692" type="curve"/>
      <point x="589" y="478" type="line" smooth="yes"/>
      <point x="589" y="358"/>
      <point x="588" y="293"/>
      <point x="509" y="293" type="curve" smooth="yes"/>
      <point x="431" y="293"/>
      <point x="422" y="353"/>
      <point x="422" y="527" type="curve"/>
      <point x="83" y="527" type="line"/>
      <point x="83" y="42"/>
      <point x="236" y="-20"/>
    </contour>
    <contour>
      <point x="499" y="968" type="curve" smooth="yes"/>
      <point x="438" y="968"/>
      <point x="415" y="1011"/>
      <point x="415" y="1095" type="curve" smooth="yes"/>
      <point x="415" y="1336" type="line" smooth="yes"/>
      <point x="415" y="1424"/>
      <point x="440" y="1467"/>
      <point x="506" y="1467" type="curve" smooth="yes"/>
      <point x="565" y="1467"/>
      <point x="589" y="1429"/>
      <point x="589" y="1342" type="curve" smooth="yes"/>
      <point x="589" y="1100" type="line" smooth="yes"/>
      <point x="589" y="1005"/>
      <point x="561" y="968"/>
    </contour>
  </outline>
</glyph>
<glyph name="A" format="1">
  <advance width="1031"/>
  <unicode hex="0041"/>
  <outline>
    <contour>
      <point x="32" y="0" type="line"/>
      <point x="380" y="0" type="line"/>
      <point x="514" y="1381" type="line"/>
      <point x="521" y="1381" type="line"/>
      <point x="667" y="0" type="line"/>
      <point x="999" y="0" type="line"/>
      <point x="768" y="1760" type="line"/>
      <point x="258" y="1760" type="line"/>
    </contour>
    <contour>
      <point x="314" y="281" type="line"/>
      <point x="314" y="566" type="line"/>
      <point x="720" y="566" type="line"/>
      <point x="720" y="281" type="line"/>
    </contour>
    <contour>
      <point x="931" y="10" type="move" name="ogonek"/>
    </contour>
    <contour>
      <point x="516" y="1760" type="move" name="top"/>
    </contour>
  </outline>
</glyph>
<glyph name="E" format="1">
  <advance width="885"/>
  <unicode hex="0045"/>
  <outline>
    <contour>
      <point x="114" y="0" type="line"/>
      <point x="824" y="0" type="line"/>
      <point x="824" y="318" type="line"/>
      <point x="474" y="318" type="line"/>
      <point x="474" y="756" type="line"/>
      <point x="787" y="756" type="line"/>
      <point x="787" y="1065" type="line"/>
      <point x="474" y="1065" type="line"/>
      <point x="474" y="1440" type="line"/>
      <point x="801" y="1440" type="line"/>
      <point x="801" y="1760" type="line"/>
      <point x="114" y="1760" type="line"/>
    </contour>
    <contour>
      <point x="801" y="10" type="move" name="ogonek"/>
    </contour>
    <contour>
      <point x="512" y="22" type="move" name="bottom"/>
    </contour>
    <contour>
      <point x="475" y="1760" type="move" name="top"/>
    </contour>
  </outline>
</glyph>
<glyph name="R" format="1">
  <advance width="1096"/>
  <unicode hex="0052"/>
  <outline>
    <contour>
      <point x="114" y="0" type="line"/>
      <point x="474" y="0" type="line"/>
      <point x="474" y="803" type="line"/>
      <point x="484.51" y="803"/>
      <point x="494.687" y="802.859"/>
      <point x="504.474" y="802.462" type="curve" smooth="yes"/>
      <point x="581.287" y="799.339"/>
      <point x="634" y="780.36"/>
      <point x="634" y="689" type="curve" smooth="yes"/>
      <point x="634" y="0" type="line"/>
      <point x="994" y="0" type="line"/>
      <point x="994" y="666" type="line" smooth="yes"/>
      <point x="994" y="805"/>
      <point x="940" y="915"/>
      <point x="830" y="938" type="curve"/>
      <point x="964" y="982"/>
      <point x="988" y="1077"/>
      <point x="988" y="1269" type="curve" smooth="yes"/>
      <point x="988" y="1566"/>
      <point x="938" y="1760"/>
      <point x="668" y="1760" type="curve" smooth="yes"/>
      <point x="114" y="1760" type="line"/>
    </contour>
    <contour>
      <point x="476" y="1094" type="line"/>
      <point x="476" y="1490" type="line"/>
      <point x="509" y="1490" type="line" smooth="yes"/>
      <point x="624.244" y="1490"/>
      <point x="633.612" y="1444.22"/>
      <point x="633.987" y="1314.45" type="curve" smooth="yes"/>
      <point x="633.996" y="1311.35"/>
      <point x="634" y="1308.2"/>
      <point x="634" y="1305" type="curve" smooth="yes"/>
      <point x="634" y="1154"/>
      <point x="620" y="1094"/>
      <point x="544" y="1094" type="curve" smooth="yes"/>
    </contour>
    <contour>
      <point x="548" y="1760" type="move" name="top"/>
    </contour>
    <contour>
      <point x="548" y="0" type="move" name="bottom"/>
    </contour>
  </outline>
</glyph>
<glyph name="S" format="1">
  <advance width="963"/>
  <unicode hex="0053"/>
  <outline>
    <contour>
      <point x="506" y="-20" type="curve" smooth="yes"/>
      <point x="791" y="-20"/>
      <point x="913" y="131"/>
      <point x="913" y="484" type="curve" smooth="yes"/>
      <point x="913" y="656"/>
      <point x="845" y="805"/>
      <point x="687" y="981" type="curve" smooth="yes"/>
      <point x="504" y="1185" type="line" smooth="yes"/>
      <point x="440" y="1257"/>
      <point x="412" y="1317"/>
      <point x="412" y="1383" type="curve" smooth="yes"/>
      <point x="412" y="1447"/>
      <point x="436" y="1474"/>
      <point x="492" y="1474" type="curve" smooth="yes"/>
      <point x="550" y="1474"/>
      <point x="575" y="1440"/>
      <point x="575" y="1361" type="curve" smooth="yes"/>
      <point x="575" y="1224" type="line"/>
      <point x="894" y="1224" type="line"/>
      <point x="894" y="1339" type="line" smooth="yes"/>
      <point x="894" y="1648"/>
      <point x="775" y="1781"/>
      <point x="497" y="1781" type="curve" smooth="yes"/>
      <point x="204" y="1781"/>
      <point x="79" y="1653"/>
      <point x="79" y="1355" type="curve" smooth="yes"/>
      <point x="79" y="1170"/>
      <point x="129" y="1036"/>
      <point x="247" y="909" type="curve" smooth="yes"/>
      <point x="398" y="746" type="line" smooth="yes"/>
      <point x="522" y="611"/>
      <point x="575" y="513"/>
      <point x="575" y="419" type="curve" smooth="yes"/>
      <point x="575" y="327"/>
      <point x="549" y="288"/>
      <point x="490" y="288" type="curve" smooth="yes"/>
      <point x="431" y="288"/>
      <point x="405" y="332"/>
      <point x="405" y="435" type="curve" smooth="yes"/>
      <point x="405" y="610" type="line"/>
      <point x="73" y="610" type="line"/>
      <point x="73" y="473" type="line" smooth="yes"/>
      <point x="73" y="128"/>
      <point x="203" y="-20"/>
    </contour>
    <contour>
      <point x="522" y="1757" type="move" name="top"/>
    </contour>
    <contour>
      <point x="485" y="0" type="move" name="bottom"/>
    </contour>
  </outline>
</glyph>
<glyph name="T" format="1">
  <advance width="808"/>
  <unicode hex="0054"/>
  <outline>
    <contour>
      <point x="224" y="0" type="line"/>
      <point x="584" y="0" type="line"/>
      <point x="584" y="1439" type="line"/>
      <point x="807" y="1439" type="line"/>
      <point x="807" y="1760" type="line"/>
      <point x="1" y="1760" type="line"/>
      <point x="1" y="1439" type="line"/>
      <point x="224" y="1439" type="line"/>
    </contour>
    <contour>
      <point x="404" y="1005" type="move" name="center"/>
    </contour>
    <contour>
      <point x="404" y="0" type="move" name="bottom"/>
    </contour>
    <contour>
      <point x="404" y="1760" type="move" name="top"/>
    </contour>
  </outline>
</glyph>
<glyph name="V" format="1">
  <advance width="1035"/>
  <unicode hex="0056"/>
  <outline>
    <contour>
      <point x="293" y="0" type="line"/>
      <point x="760" y="0" type="line"/>
      <point x="985" y="1760" type="line"/>
      <point x="652" y="1760" type="line"/>
      <point x="565" y="891" type="line"/>
      <point x="544" y="473" type="line"/>
      <point x="533" y="473" type="line"/>
      <point x="503" y="891" type="line"/>
      <point x="392" y="1760" type="line"/>
      <point x="50" y="1760" type="line"/>
    </contour>
  </outline>
</glyph>
<glyph name="X" format="1">
  <advance width="976"/>
  <unicode hex="0058"/>
  <outline>
    <contour>
      <point x="5" y="0" type="line"/>
      <point x="368" y="0" type="line"/>
      <point x="567" y="697" type="line"/>
      <point x="593" y="697" type="line"/>
      <point x="943" y="1760" type="line"/>
      <point x="594" y="1760" type="line"/>
      <point x="387" y="1053" type="line"/>
      <point x="331" y="1053" type="line"/>
    </contour>
    <contour>
      <point x="675" y="0" type="line"/>
      <point x="982" y="0" type="line"/>
      <point x="290" y="1760" type="line"/>
      <point x="-5" y="1760" type="line"/>
    </contour>
  </outline>
</glyph>
<glyph name="l" format="1">
  <advance width="584"/>
  <unicode hex="006C"/>
  <outline>
    <contour>
      <point x="115" y="0" type="line"/>
      <point x="469" y="0" type="line"/>
      <point x="469" y="1769" type="line"/>
      <point x="115" y="1769" type="line"/>
    </contour>
    <contour>
      <point x="292" y="1760" type="move" name="top"/>
    </contour>
    <contour>
      <point x="292" y="0" type="move" name="bottom"/>
    </contour>
    <contour>
      <point x="590" y="1500" type="move" name="topright"/>
    </contour>
  </outline>
</glyph>
<glyph name="t" format="1">
  <advance width="693"/>
  <unicode hex="0074"/>
  <outline>
    <contour>
      <point x="395" y="-11" type="curve" smooth="yes"/>
      <point x="635" y="-11" type="line"/>
      <point x="635" y="250" type="line"/>
      <point x="536" y="250"/>
      <point x="503" y="262"/>
      <point x="503" y="326" type="curve" smooth="yes"/>
      <point x="503" y="1190" type="line"/>
      <point x="625" y="1190" type="line"/>
      <point x="625" y="1440" type="line"/>
      <point x="503" y="1440" type="line"/>
      <point x="503" y="1761" type="line"/>
      <point x="149" y="1761" type="line"/>
      <point x="149" y="1440" type="line"/>
      <point x="48" y="1440" type="line"/>
      <point x="48" y="1190" type="line"/>
      <point x="149" y="1190" type="line"/>
      <point x="149" y="238" type="line" smooth="yes"/>
      <point x="149" y="69"/>
      <point x="202" y="-11"/>
    </contour>
    <contour>
      <point x="347" y="0" type="move" name="center"/>
    </contour>
    <contour>
      <point x="347" y="0" type="move" name="bottom"/>
    </contour>
  </outline>
</glyph>
<glyph name="y" format="1">
  <advance width="945"/>
  <unicode hex="0079"/>
  <outline>
    <contour>
      <point x="55" y="-287" type="line"/>
      <point x="459" y="-287" type="line" smooth="yes"/>
      <point x="588" y="-287"/>
      <point x="640" y="-229"/>
      <point x="656" y="-115" type="curve" smooth="yes"/>
      <point x="934" y="1501" type="line"/>
      <point x="603" y="1501" type="line"/>
      <point x="529" y="754" type="line"/>
      <point x="500" y="352" type="line"/>
      <point x="471" y="352" type="line"/>
      <point x="436" y="754" type="line"/>
      <point x="359" y="1501" type="line"/>
      <point x="28" y="1501" type="line"/>
      <point x="259" y="91" type="line" smooth="yes"/>
      <point x="262" y="69"/>
      <point x="264" y="15"/>
      <point x="264" y="2" type="curve" smooth="yes"/>
      <point x="264" y="-52"/>
      <point x="229" y="-60"/>
      <point x="167" y="-60" type="curve" smooth="yes"/>
      <point x="55" y="-60" type="line"/>
    </contour>
    <contour>
      <point x="473" y="1500" type="move" name="top"/>
    </contour>
  </outline>
</glyph>
<glyph name="braceleft" format="1">
  <advance width="798"/>
  <unicode hex="007B"/>
  <outline>
    <contour>
      <point x="655" y="-121" type="curve" smooth="yes"/>
      <point x="715" y="-121" type="line"/>
      <point x="715" y="126" type="line"/>
      <point x="595" y="126"/>
      <point x="576" y="159"/>
      <point x="576" y="230" type="curve" smooth="yes"/>
      <point x="576" y="476" type="line" smooth="yes"/>
      <point x="576" y="713"/>
      <point x="543" y="795"/>
      <point x="426" y="830" type="curve"/>
      <point x="543" y="865"/>
      <point x="576" y="947"/>
      <point x="576" y="1184" type="curve" smooth="yes"/>
      <point x="576" y="1430" type="line" smooth="yes"/>
      <point x="576" y="1501"/>
      <point x="595" y="1534"/>
      <point x="715" y="1534" type="curve"/>
      <point x="715" y="1781" type="line"/>
      <point x="655" y="1781" type="line" smooth="yes"/>
      <point x="355" y="1781"/>
      <point x="224" y="1705"/>
      <point x="224" y="1443" type="curve" smooth="yes"/>
      <point x="224" y="1168" type="line" smooth="yes"/>
      <point x="224" y="1035"/>
      <point x="223" y="964"/>
      <point x="85" y="964" type="curve"/>
      <point x="85" y="696" type="line"/>
      <point x="223" y="696"/>
      <point x="224" y="625"/>
      <point x="224" y="492" type="curve" smooth="yes"/>
      <point x="224" y="217" type="line" smooth="yes"/>
      <point x="224" y="-45"/>
      <point x="355" y="-121"/>
    </contour>
  </outline>
</glyph>
<glyph name="exclamdown" format="1">
  <advance width="558"/>
  <unicode hex="00A1"/>
  <outline>
    <contour>
      <point x="100" y="-257" type="line"/>
      <point x="458" y="-257" type="line"/>
      <point x="368" y="1057" type="line"/>
      <point x="180" y="1057" type="line"/>
    </contour>
    <contour>
      <point x="120" y="1206" type="line"/>
      <point x="438" y="1206" type="line"/>
      <point x="438" y="1504" type="line"/>
      <point x="120" y="1504" type="line"/>
    </contour>
  </outline>
</glyph>
<glyph name="cent" format="1">
  <advance width="1048"/>
  <unicode hex="00A2"/>
  <outline>
    <contour>
      <point x="465" y="-228" type="line"/>
      <point x="636" y="-228" type="line"/>
      <point x="636" y="-13" type="line"/>
      <point x="842" y="15"/>
      <point x="978" y="157"/>
      <point x="978" y="379" type="curve" smooth="yes"/>
      <point x="978" y="614" type="line"/>
      <point x="623" y="614" type="line"/>
      <point x="624" y="389" type="line" smooth="yes"/>
      <point x="624.298" y="322"/>
      <point x="602" y="264"/>
      <point x="540" y="264" type="curve" smooth="yes"/>
      <point x="479" y="264"/>
      <point x="454" y="326"/>
      <point x="454" y="387" type="curve" smooth="yes"/>
      <point x="454" y="1114" type="line" smooth="yes"/>
      <point x="454" y="1197"/>
      <point x="483" y="1239"/>
      <point x="542" y="1239" type="curve" smooth="yes"/>
      <point x="609" y="1239"/>
      <point x="622" y="1185"/>
      <point x="622" y="1116" type="curve" smooth="yes"/>
      <point x="622" y="879" type="line"/>
      <point x="978" y="879" type="line"/>
      <point x="978" y="1135" type="line" smooth="yes"/>
      <point x="978" y="1351"/>
      <point x="839" y="1484"/>
      <point x="636" y="1512" type="curve"/>
      <point x="636" y="1769" type="line"/>
      <point x="465" y="1769" type="line"/>
      <point x="465" y="1514" type="line"/>
      <point x="179" y="1484"/>
      <point x="98" y="1297"/>
      <point x="98" y="954" type="curve" smooth="yes"/>
      <point x="98" y="492" type="line" smooth="yes"/>
      <point x="98" y="190"/>
      <point x="198" y="18"/>
      <point x="465" y="-13" type="curve"/>
    </contour>
  </outline>
</glyph>
<glyph name="macron" format="1">
  <advance width="696"/>
  <unicode hex="00AF"/>
  <outline>
    <contour>
      <point x="90" y="1696" type="line"/>
      <point x="606" y="1696" type="line"/>
      <point x="606" y="1878" type="line"/>
      <point x="90" y="1878" type="line"/>
    </contour>
    <contour>
      <point x="347" y="1799" type="move" name="_center"/>
    </contour>
    <contour>
      <point x="348" y="1500" type="move" name="_top"/>
    </contour>
  </outline>
</glyph>
<glyph name="Thorn" format="1">
  <advance width="1064"/>
  <unicode hex="00DE"/>
  <outline>
    <contour>
      <point x="122" y="0" type="line"/>
      <point x="482" y="0" type="line"/>
      <point x="482" y="388" type="line"/>
      <point x="625" y="388" type="line" smooth="yes"/>
      <point x="908.907" y="388"/>
      <point x="999.02" y="603.537"/>
      <point x="1003.8" y="910.528" type="curve" smooth="yes"/>
      <point x="1003.93" y="919.278"/>
      <point x="1004" y="928.103"/>
      <point x="1004" y="937" type="curve" smooth="yes"/>
      <point x="1004" y="1313"/>
      <point x="893" y="1494"/>
      <point x="601" y="1494" type="curve" smooth="yes"/>
      <point x="482" y="1494" type="line"/>
      <point x="482" y="1761" type="line"/>
      <point x="122" y="1761" type="line"/>
    </contour>
    <contour>
      <point x="482" y="684" type="line"/>
      <point x="482" y="1223" type="line"/>
      <point x="521" y="1223" type="line" smooth="yes"/>
      <point x="631.273" y="1223"/>
      <point x="643.457" y="1109.67"/>
      <point x="643.981" y="954.581" type="curve" smooth="yes"/>
      <point x="643.994" y="950.746"/>
      <point x="644" y="946.885"/>
      <point x="644" y="943" type="curve" smooth="yes"/>
      <point x="644" y="774"/>
      <point x="636" y="684"/>
      <point x="522" y="684" type="curve" smooth="yes"/>
    </contour>
  </outline>
</glyph>
<glyph name="oslash" format="1">
  <advance width="1054"/>
  <unicode hex="00F8"/>
  <outline>
    <contour>
      <point x="311" y="-173" type="line"/>
      <point x="821" y="1644" type="line"/>
      <point x="720" y="1672" type="line"/>
      <point x="211" y="-145" type="line"/>
    </contour>
    <component base="o"/>
    <contour>
      <point x="538" y="0" type="move" name="top"/>
    </contour>
  </outline>
</glyph>
<glyph name="hbar" format="1">
  <advance width="1099"/>
  <unicode hex="0127"/>
  <outline>
    <contour>
      <point x="0" y="1619" type="line"/>
      <point x="816" y="1619" type="line"/>
      <point x="816" y="1719" type="line"/>
      <point x="0" y="1719" type="line"/>
    </contour>
    <component base="h"/>
  </outline>
</glyph>
<glyph name="Lcaron" format="1">
  <advance width="834"/>
  <unicode hex="013D"/>
  <outline>
    <contour>
      <point x="784" y="1077" type="line"/>
      <point x="952" y="1077" type="line"/>
      <point x="1054" y="1414" type="line"/>
      <point x="1054" y="1723" type="line"/>
      <point x="723" y="1723" type="line"/>
      <point x="723" y="1405" type="line"/>
      <point x="850" y="1405" type="line"/>
    </contour>
    <component base="L"/>
  </outline>
</glyph>
<glyph name="Lslash" format="1">
  <advance width="864"/>
  <unicode hex="0141"/>
  <outline>
    <contour>
      <point x="-1" y="684" type="line"/>
      <point x="706" y="923" type="line"/>
      <point x="706" y="1155" type="line"/>
      <point x="-1" y="916" type="line"/>
    </contour>
    <component base="L"/>
  </outline>
</glyph>
<glyph name="lslash" format="1">
  <advance width="718"/>
  <unicode hex="0142"/>
  <outline>
    <contour>
      <point x="101" y="689" type="line"/>
      <point x="617" y="921" type="line"/>
      <point x="617" y="1153" type="line"/>
      <point x="101" y="921" type="line"/>
    </contour>
    <component base="l" xOffset="64"/>
  </outline>
</glyph>
<glyph name="caron" format="1">
  <advance width="970"/>
  <unicode hex="02C7"/>
  <outline>
    <contour>
      <point x="281" y="1632" type="line"/>
      <point x="689" y="1632" type="line"/>
      <point x="930" y="2035" type="line"/>
      <point x="571" y="2035" type="line"/>
      <point x="485" y="1750" type="line"/>
      <point x="399" y="2035" type="line"/>
      <point x="40" y="2035" type="line"/>
    </contour>
    <contour>
      <point x="485" y="1500" type="move" name="_top"/>
    </contour>
  </outline>
</glyph>
<glyph name="ring" format="1">
  <advance width="923"/>
  <unicode hex="02DA"/>
  <outline>
    <contour>
      <point x="462" y="1798" type="curve" smooth="yes"/>
      <point x="372" y="1798"/>
      <point x="327" y="1874"/>
      <point x="327" y="1950" type="curve" smooth="yes"/>
      <point x="327" y="2026"/>
      <point x="372" y="2102"/>
      <point x="462" y="2102" type="curve" smooth="yes"/>
      <point x="552" y="2102"/>
      <point x="597" y="2026"/>
      <point x="597" y="1950" type="curve" smooth="yes"/>
      <point x="597" y="1874"/>
      <point x="552" y="1798"/>
    </contour>
    <contour>
      <point x="461" y="1670" type="curve" smooth="yes"/>
      <point x="632" y="1670"/>
      <point x="744" y="1781"/>
      <point x="744" y="1950" type="curve" smooth="yes"/>
      <point x="744" y="2119"/>
      <point x="632" y="2230"/>
      <point x="461" y="2230" type="curve" smooth="yes"/>
      <point x="290" y="2230"/>
      <point x="179" y="2119"/>
      <point x="179" y="1950" type="curve" smooth="yes"/>
      <point x="179" y="1780"/>
      <point x="290" y="1670"/>
    </contour>
    <contour>
      <point x="462" y="1500" type="move" name="_top"/>
    </contour>
  </outline>
</glyph>
<glyph name="hungarumlaut" format="1">
  <advance width="1300"/>
  <unicode hex="02DD"/>
  <outline>
    <contour>
      <point x="393" y="1682" type="line"/>
      <point x="672" y="2112" type="line"/>
      <point x="431" y="2223" type="line"/>
      <point x="247" y="1744" type="line"/>
    </contour>
    <contour>
      <point x="795" y="1682" type="line"/>
      <point x="1135" y="2112" type="line"/>
      <point x="890" y="2223" type="line"/>
      <point x="649" y="1744" type="line"/>
    </contour>
    <contour>
      <point x="661" y="1500" type="move" name="_top"/>
    </contour>
  </outline>
</glyph>
<glyph name="dblgravecmb" format="1">
  <advance width="825"/>
  <unicode hex="030F"/>
  <outline>
    <contour>
      <point x="287" y="1650" type="line"/>
      <point x="453" y="1708" type="line"/>
      <point x="232" y="2187" type="line"/>
      <point x="-2" y="2079" type="line"/>
    </contour>
    <contour>
      <point x="659" y="1650" type="line"/>
      <point x="825" y="1708" type="line"/>
      <point x="641" y="2187" type="line"/>
      <point x="411" y="2079" type="line"/>
    </contour>
    <contour>
      <point x="412" y="1500" type="move" name="_top"/>
    </contour>
  </outline>
</glyph>
<glyph name="uni0311" format="1">
  <advance width="1016"/>
  <unicode hex="0311"/>
  <outline>
    <contour>
      <point x="155" y="1680" type="line"/>
      <point x="373" y="1680" type="line"/>
      <point x="373" y="1805"/>
      <point x="425" y="1823"/>
      <point x="508" y="1823" type="curve" smooth="yes"/>
      <point x="591" y="1823"/>
      <point x="643" y="1805"/>
      <point x="643" y="1680" type="curve"/>
      <point x="861" y="1680" type="line"/>
      <point x="861" y="1695" type="line" smooth="yes"/>
      <point x="861" y="1912"/>
      <point x="744" y="2013"/>
      <point x="510" y="2013" type="curve" smooth="yes"/>
      <point x="270" y="2013"/>
      <point x="155" y="1916"/>
      <point x="155" y="1693" type="curve" smooth="yes"/>
    </contour>
    <contour>
      <point x="511" y="1500" type="move" name="_top"/>
    </contour>
  </outline>
</glyph>
<glyph name="commaaccentcomb" format="1">
  <advance width="528"/>
  <unicode hex="0326"/>
  <outline>
    <contour>
      <point x="146" y="-824" type="line"/>
      <point x="314" y="-824" type="line"/>
      <point x="416" y="-487" type="line"/>
      <point x="416" y="-178" type="line"/>
      <point x="85" y="-178" type="line"/>
      <point x="85" y="-496" type="line"/>
      <point x="212" y="-496" type="line"/>
    </contour>
    <contour>
      <point x="280.5" y="0" type="move" name="_bottom"/>
    </contour>
  </outline>
</glyph>
<glyph name="bullet" format="1">
  <advance width="861"/>
  <unicode hex="2022"/>
  <outline>
    <contour>
      <point x="430" y="403" type="curve" smooth="yes"/>
      <point x="629" y="403"/>
      <point x="744" y="539"/>
      <point x="744" y="741" type="curve" smooth="yes"/>
      <point x="744" y="943"/>
      <point x="629" y="1079"/>
      <point x="430" y="1079" type="curve" smooth="yes"/>
      <point x="231" y="1079"/>
      <point x="117" y="943"/>
      <point x="117" y="741" type="curve" smooth="yes"/>
      <point x="117" y="539"/>
      <point x="231" y="403"/>
    </contour>
  </outline>
</glyph>
